<svg width="37" height="35" viewBox="0 0 37 35" fill="none" xmlns="http://www.w3.org/2000/svg">
<g id="Frame 39857">
<path id="linkedin" d="M8.27104 34.7477V11.4821H0.538135V34.7477H8.27104ZM4.40611 8.30259C4.96065 8.35044 5.51909 8.28296 6.04627 8.10439C6.57345 7.92582 7.05795 7.64004 7.46927 7.26505C7.88058 6.89005 8.2098 6.43395 8.4362 5.92547C8.6626 5.417 8.78127 4.86715 8.78474 4.31056C8.78822 3.75397 8.67642 3.20269 8.45638 2.69143C8.23634 2.18017 7.91284 1.72 7.50623 1.3399C7.09963 0.959793 6.61873 0.66799 6.09382 0.48286C5.56891 0.29773 5.01136 0.223283 4.45626 0.264205C3.90388 0.216127 3.34753 0.282534 2.82199 0.459273C2.29644 0.636013 1.81302 0.919283 1.40194 1.29137C0.990868 1.66346 0.660984 2.11635 0.43292 2.62174C0.204856 3.12713 0.0835186 3.67414 0.0764953 4.22856C0.069472 4.78298 0.176914 5.33289 0.392102 5.84389C0.607291 6.3549 0.925597 6.81601 1.32712 7.19839C1.72863 7.58077 2.20473 7.87619 2.72562 8.06619C3.24652 8.25619 3.80101 8.33666 4.35443 8.30259H4.40611ZM12.5524 34.7477H20.2853V21.7546C20.2555 21.1163 20.3414 20.4778 20.5391 19.87C20.8285 19.0471 21.3651 18.3338 22.0754 17.8275C22.7857 17.3212 23.6351 17.0467 24.5074 17.0416C27.3054 17.0416 28.4255 19.1694 28.4255 22.3033V34.7507H36.1584V21.4066C36.1584 14.2634 32.3437 10.9349 27.2553 10.9349C25.8374 10.8779 24.4313 11.2138 23.1922 11.9055C21.9531 12.5971 20.9293 13.6177 20.2336 14.8546H20.2853V11.4806H12.5524C12.6542 13.6646 12.5524 34.7477 12.5524 34.7477Z" fill="#003F87"/>
</g>
</svg>
