<svg width="25" height="125" viewBox="0 0 25 125" fill="none" xmlns="http://www.w3.org/2000/svg">
<path d="M0.335097 -0.347656L0.335096 23.705C8.95457 23.705 16.5104 19.1514 20.7405 12.3117C20.86 12.1212 20.9734 11.9307 21.0838 11.7371C23.0455 8.36331 24.2103 4.46718 24.3207 0.303745L24.3207 0.291456C24.3237 0.0794436 24.3268 -0.135642 24.3268 -0.347655L0.332031 -0.347656L0.335097 -0.347656Z" fill="#01AE9D"/>
<circle cx="11.3274" cy="11.3274" r="11.3274" transform="matrix(-4.37114e-08 1 1 4.37114e-08 1.00391 24.9473)" fill="#FCC400"/>
<path fill-rule="evenodd" clip-rule="evenodd" d="M24.4808 50.0869L24.4808 74.3881L0.179688 50.0869L24.4808 50.0869Z" fill="#003F87"/>
<path d="M0.335097 75.6299L0.335096 99.6826C8.95457 99.6826 16.5104 95.1289 20.7405 88.2892C20.86 88.0987 20.9734 87.9082 21.0838 87.7146C23.0455 84.3408 24.2103 80.4447 24.3207 76.2813L24.3207 76.269C24.3237 76.057 24.3268 75.8419 24.3268 75.6299L0.332031 75.6299L0.335097 75.6299Z" fill="#01AE9D"/>
<circle cx="11.3274" cy="11.3274" r="11.3274" transform="matrix(-4.37114e-08 1 1 4.37114e-08 1.00391 100.925)" fill="#FCC400"/>
</svg>
