<svg width="99" height="353" viewBox="0 0 99 353" fill="none" xmlns="http://www.w3.org/2000/svg">
<path d="M48.322 353L48.322 304.861C31.071 304.861 15.9488 313.975 7.48287 327.664C7.24362 328.045 7.01663 328.426 6.79578 328.814C2.86953 335.566 0.538326 343.364 0.317474 351.696L0.317474 351.721C0.31134 352.145 0.305202 352.576 0.305202 353L48.3281 353L48.322 353Z" fill="#01AE9D"/>
<path fill-rule="evenodd" clip-rule="evenodd" d="M-0.00334549 302.375L-0.00334762 253.739L48.6328 302.375L-0.00334549 302.375Z" fill="#003F87"/>
<path d="M48.322 251.252L48.322 203.113C31.071 203.113 15.9488 212.227 7.48287 225.916C7.24362 226.297 7.01663 226.678 6.79578 227.066C2.86953 233.818 0.538326 241.616 0.317474 249.948L0.317474 249.973C0.31134 250.397 0.305202 250.828 0.305202 251.252L48.3281 251.252L48.322 251.252Z" fill="#01AE9D"/>
<circle cx="22.6705" cy="22.6705" r="22.6705" transform="matrix(-4.37114e-08 -1 -1 4.37114e-08 46.9844 200.627)" fill="#FCC400"/>
<path fill-rule="evenodd" clip-rule="evenodd" d="M-0.00334549 150.313L-0.00334762 101.676L48.6328 150.312L-0.00334549 150.313Z" fill="#003F87"/>
<path d="M48.322 99.1904L48.322 51.0516C31.071 51.0516 15.9488 60.1652 7.48287 73.8542C7.24362 74.2355 7.01663 74.6167 6.79578 75.0041C2.86953 81.7564 0.538326 89.554 0.317474 97.8867L0.317474 97.9113C0.31134 98.3356 0.305202 98.7661 0.305202 99.1904L48.3281 99.1904L48.322 99.1904Z" fill="#01AE9D"/>
<circle cx="22.6705" cy="22.6705" r="22.6705" transform="matrix(-4.37114e-08 -1 -1 4.37114e-08 46.9844 48.5645)" fill="#FCC400"/>
<path d="M96.9626 0.737305L96.9626 48.8762C79.7117 48.8762 64.5895 39.7625 56.1235 26.0736C55.8842 25.6923 55.6573 25.311 55.4364 24.9236C51.5102 18.1714 49.179 10.3737 48.9581 2.04101L48.9581 2.01642C48.952 1.5921 48.9458 1.16163 48.9458 0.737307L96.9688 0.737305L96.9626 0.737305Z" fill="#003F87"/>
<path fill-rule="evenodd" clip-rule="evenodd" d="M48.6373 51.3623L48.6373 99.9985L97.2734 51.3623L48.6373 51.3623Z" fill="#FCC400"/>
<circle cx="72.9545" cy="125.156" r="22.6705" transform="rotate(90 72.9545 125.156)" fill="#01AE9D"/>
<path d="M96.9626 152.8L96.9626 200.939C79.7117 200.939 64.5895 191.825 56.1235 178.136C55.8842 177.755 55.6573 177.374 55.4364 176.986C51.5102 170.234 49.179 162.436 48.9581 154.104L48.9581 154.079C48.952 153.655 48.9458 153.224 48.9458 152.8L96.9688 152.8L96.9626 152.8Z" fill="#003F87"/>
<path fill-rule="evenodd" clip-rule="evenodd" d="M48.6373 203.425L48.6373 252.061L97.2734 203.425L48.6373 203.425Z" fill="#FCC400"/>
<circle cx="72.9545" cy="277.217" r="22.6705" transform="rotate(90 72.9545 277.217)" fill="#01AE9D"/>
<path d="M96.9626 304.861L96.9626 353C79.7117 353 64.5895 343.887 56.1235 330.198C55.8842 329.816 55.6573 329.435 55.4364 329.048C51.5102 322.295 49.179 314.498 48.9581 306.165L48.9581 306.14C48.952 305.716 48.9458 305.286 48.9458 304.861L96.9688 304.861L96.9626 304.861Z" fill="#003F87"/>
</svg>
